<svg id="visual" viewBox="0 0 960 540" width="960" height="540" xmlns="http://www.w3.org/2000/svg" xmlns:xlink="http://www.w3.org/1999/xlink" version="1.1"><rect x="0" y="0" width="960" height="540" fill="#BCAA99"></rect><path d="M0 417L26.7 422.8C53.3 428.7 106.7 440.3 160 441.2C213.3 442 266.7 432 320 426.7C373.3 421.3 426.7 420.7 480 420.7C533.3 420.7 586.7 421.3 640 421.8C693.3 422.3 746.7 422.7 800 426.7C853.3 430.7 906.7 438.3 933.3 442.2L960 446L960 541L933.3 541C906.7 541 853.3 541 800 541C746.7 541 693.3 541 640 541C586.7 541 533.3 541 480 541C426.7 541 373.3 541 320 541C266.7 541 213.3 541 160 541C106.7 541 53.3 541 26.7 541L0 541Z" fill="#c2b97f"></path><path d="M0 474L26.7 471C53.3 468 106.7 462 160 456.5C213.3 451 266.7 446 320 446.3C373.3 446.7 426.7 452.3 480 454.7C533.3 457 586.7 456 640 455.8C693.3 455.7 746.7 456.3 800 454C853.3 451.7 906.7 446.3 933.3 443.7L960 441L960 541L933.3 541C906.7 541 853.3 541 800 541C746.7 541 693.3 541 640 541C586.7 541 533.3 541 480 541C426.7 541 373.3 541 320 541C266.7 541 213.3 541 160 541C106.7 541 53.3 541 26.7 541L0 541Z" fill="#b69a70"></path><path d="M0 482L26.7 480.5C53.3 479 106.7 476 160 476.8C213.3 477.7 266.7 482.3 320 484.3C373.3 486.3 426.7 485.7 480 486.2C533.3 486.7 586.7 488.3 640 488C693.3 487.7 746.7 485.3 800 481.7C853.3 478 906.7 473 933.3 470.5L960 468L960 541L933.3 541C906.7 541 853.3 541 800 541C746.7 541 693.3 541 640 541C586.7 541 533.3 541 480 541C426.7 541 373.3 541 320 541C266.7 541 213.3 541 160 541C106.7 541 53.3 541 26.7 541L0 541Z" fill="#a27e66"></path><path d="M0 506L26.7 507.2C53.3 508.3 106.7 510.7 160 509.7C213.3 508.7 266.7 504.3 320 504C373.3 503.7 426.7 507.3 480 510.2C533.3 513 586.7 515 640 514.7C693.3 514.3 746.7 511.7 800 510.7C853.3 509.7 906.7 510.3 933.3 510.7L960 511L960 541L933.3 541C906.7 541 853.3 541 800 541C746.7 541 693.3 541 640 541C586.7 541 533.3 541 480 541C426.7 541 373.3 541 320 541C266.7 541 213.3 541 160 541C106.7 541 53.3 541 26.7 541L0 541Z" fill="#88665d"></path></svg>