<svg id="visual" viewBox="0 0 960 540" width="960" height="540" xmlns="http://www.w3.org/2000/svg" xmlns:xlink="http://www.w3.org/1999/xlink" version="1.1"><rect x="0" y="0" width="960" height="540" fill="#BCAA99"></rect><path d="M0 416L26.7 408.8C53.3 401.7 106.7 387.3 160 382.2C213.3 377 266.7 381 320 385.3C373.3 389.7 426.7 394.3 480 392.3C533.3 390.3 586.7 381.7 640 383.8C693.3 386 746.7 399 800 408.7C853.3 418.3 906.7 424.7 933.3 427.8L960 431L960 541L933.3 541C906.7 541 853.3 541 800 541C746.7 541 693.3 541 640 541C586.7 541 533.3 541 480 541C426.7 541 373.3 541 320 541C266.7 541 213.3 541 160 541C106.7 541 53.3 541 26.7 541L0 541Z" fill="#c2b97f"></path><path d="M0 447L26.7 447.2C53.3 447.3 106.7 447.7 160 443.7C213.3 439.7 266.7 431.3 320 424.5C373.3 417.7 426.7 412.3 480 416.8C533.3 421.3 586.7 435.7 640 439.8C693.3 444 746.7 438 800 436.8C853.3 435.7 906.7 439.3 933.3 441.2L960 443L960 541L933.3 541C906.7 541 853.3 541 800 541C746.7 541 693.3 541 640 541C586.7 541 533.3 541 480 541C426.7 541 373.3 541 320 541C266.7 541 213.3 541 160 541C106.7 541 53.3 541 26.7 541L0 541Z" fill="#baa273"></path><path d="M0 441L26.7 441.8C53.3 442.7 106.7 444.3 160 449.8C213.3 455.3 266.7 464.7 320 468.5C373.3 472.3 426.7 470.7 480 468.8C533.3 467 586.7 465 640 463.8C693.3 462.7 746.7 462.3 800 462.7C853.3 463 906.7 464 933.3 464.5L960 465L960 541L933.3 541C906.7 541 853.3 541 800 541C746.7 541 693.3 541 640 541C586.7 541 533.3 541 480 541C426.7 541 373.3 541 320 541C266.7 541 213.3 541 160 541C106.7 541 53.3 541 26.7 541L0 541Z" fill="#ad8c6b"></path><path d="M0 476L26.7 478.2C53.3 480.3 106.7 484.7 160 482.8C213.3 481 266.7 473 320 468C373.3 463 426.7 461 480 465.2C533.3 469.3 586.7 479.7 640 482.7C693.3 485.7 746.7 481.3 800 481.5C853.3 481.7 906.7 486.3 933.3 488.7L960 491L960 541L933.3 541C906.7 541 853.3 541 800 541C746.7 541 693.3 541 640 541C586.7 541 533.3 541 480 541C426.7 541 373.3 541 320 541C266.7 541 213.3 541 160 541C106.7 541 53.3 541 26.7 541L0 541Z" fill="#9c7864"></path><path d="M0 506L26.7 504.2C53.3 502.3 106.7 498.7 160 499.7C213.3 500.7 266.7 506.3 320 507C373.3 507.7 426.7 503.3 480 501.2C533.3 499 586.7 499 640 500C693.3 501 746.7 503 800 502.3C853.3 501.7 906.7 498.3 933.3 496.7L960 495L960 541L933.3 541C906.7 541 853.3 541 800 541C746.7 541 693.3 541 640 541C586.7 541 533.3 541 480 541C426.7 541 373.3 541 320 541C266.7 541 213.3 541 160 541C106.7 541 53.3 541 26.7 541L0 541Z" fill="#88665d"></path></svg>