<?xml version="1.0" encoding="UTF-8" standalone="no"?>
<!-- Generator: Adobe Illustrator 23.0.3, SVG Export Plug-In . SVG Version: 6.00 Build 0)  -->

<svg
   version="1.1"
   id="Layer_1"
   x="0px"
   y="0px"
   viewBox="0 0 69.035 69.600001"
   width="69.035004"
   height="69.599998"
   xml:space="preserve"
   sodipodi:docname="rovisys.svg"
   inkscape:version="1.4 (86a8ad7, 2024-10-11)"
   xmlns:inkscape="http://www.inkscape.org/namespaces/inkscape"
   xmlns:sodipodi="http://sodipodi.sourceforge.net/DTD/sodipodi-0.dtd"
   xmlns:xlink="http://www.w3.org/1999/xlink"
   xmlns="http://www.w3.org/2000/svg"
   xmlns:svg="http://www.w3.org/2000/svg"><sodipodi:namedview
   id="namedview1"
   pagecolor="#ffffff"
   bordercolor="#000000"
   borderopacity="0.25"
   inkscape:showpageshadow="2"
   inkscape:pageopacity="0.0"
   inkscape:pagecheckerboard="0"
   inkscape:deskcolor="#d1d1d1"
   inkscape:zoom="2.0334325"
   inkscape:cx="200.89184"
   inkscape:cy="93.438066"
   inkscape:window-width="1147"
   inkscape:window-height="1040"
   inkscape:window-x="2090"
   inkscape:window-y="97"
   inkscape:window-maximized="0"
   inkscape:current-layer="Layer_1" /><defs
   id="defs32" />
<style
   type="text/css"
   id="style1">
	.st0{fill:#FFFFFF;}
	.st1{clip-path:url(#SVGID_6_);}
	.st2{clip-path:url(#SVGID_9_);}
	.st3{clip-path:url(#SVGID_11_);}
</style>







<g
   id="g32"
   transform="translate(-65.898426,-0.98355861)">
	<g
   id="g15">
		<g
   id="g14">
			<defs
   id="defs7"><path
     id="SVGID_5_"
     d="m 101,2.1 c -0.7,0 -1.3,0.1 -2,0.2 -1.5,0.2 -2.9,0.6 -4.4,1.2 -6.8,2.6 -13.6,8.4 -19,17 -0.4,0.7 -0.9,1.4 -1.3,2.1 -0.4,0.7 -0.8,1.5 -1.2,2.2 -0.3,0.5 -0.5,1 -0.7,1.5 -0.3,0.5 -0.5,1.1 -0.8,1.6 -1.5,3.3 -2.8,6.9 -3.8,10.7 0,0 9.4,-16.8 22.9,-18.6 2.9,-0.4 6,-0.1 9.2,1.2 1.3,0.5 2.6,1.2 3.9,2 4.3,2.5 8.4,5.8 13.5,5.9 1.1,0 2,-0.1 2.8,-0.5 0.9,-0.4 1.7,-1 2.2,-1.8 0.2,-0.3 0.4,-0.6 0.6,-1 2.2,-4.5 1.1,-9 -1.4,-12.8 -0.3,-0.4 -0.5,-0.8 -0.8,-1.3 -0.3,-0.4 -0.5,-0.8 -0.9,-1.1 -0.8,-0.8 -2,-1.9 -3.1,-2.8 -1.2,-1 -2.4,-1.9 -3.2,-2.4 C 113.2,5.2 112.9,5 112.6,4.8 111.7,4.3 110.9,3.9 109.9,3.5 109.1,3.2 108.3,2.9 107.5,2.6 105.8,2.1 104.1,1.9 102.4,1.9 101.9,2 101.5,2.1 101,2.1" /></defs>
			<use
   xlink:href="#SVGID_5_"
   style="overflow:visible;fill:#28378f"
   id="use7" />
			<clipPath
   id="SVGID_6_">
				<use
   xlink:href="#SVGID_5_"
   style="overflow:visible"
   id="use8" />
			</clipPath>
			<g
   class="st1"
   clip-path="url(#SVGID_6_)"
   id="g13">
				<g
   id="g12">
					<g
   id="g11">
						<g
   id="g10">
							<defs
   id="defs8"><rect
     id="SVGID_7_"
     x="67.900002"
     y="2"
     width="57.200001"
     height="36.700001" /></defs>
							<use
   xlink:href="#SVGID_7_"
   style="overflow:visible;fill:#28378f"
   id="use9" />
							<clipPath
   id="SVGID_8_">
								<use
   xlink:href="#SVGID_7_"
   style="overflow:visible"
   id="use10" />
							</clipPath>
						</g>
					</g>
				</g>
			</g>
		</g>
	</g>
	<g
   id="g23">
		<g
   id="g22">
			<defs
   id="defs15"><path
     id="SVGID_4_"
     d="m 70.5,58.7 c 0.4,0.6 0.8,1 1.2,1.6 1,1.2 2.1,2.1 3.4,3.1 5.8,4.4 14.3,7.1 24.5,7.1 0.8,0 1.7,0 2.5,0 0.8,0 1.7,-0.1 2.5,-0.2 0.6,0 1.1,-0.1 1.6,-0.2 0.6,0 1.2,-0.2 1.8,-0.2 3.6,-0.5 7.3,-1.3 11.1,-2.5 0,0 -19.2,1 -27.9,-9.5 -1.9,-2.2 -3.3,-5 -3.9,-8.4 C 87,48.1 86.9,46.7 86.9,45.1 86.7,40.1 87.3,34.9 84.7,30.5 84.1,29.6 83.6,28.9 82.8,28.4 82,27.9 81,27.5 80.1,27.5 c -0.4,0 -0.7,0 -1.2,0 -5,0.5 -8.2,3.9 -10.1,8 -0.2,0.5 -0.4,0.8 -0.7,1.4 -0.2,0.5 -0.4,0.8 -0.5,1.3 -0.3,1.1 -0.5,2.7 -0.7,4.1 -0.2,1.5 -0.3,3 -0.3,4 0,0.4 0,0.7 0,1.1 0.1,1 0.1,1.9 0.3,3 0.2,0.8 0.3,1.7 0.5,2.5 0.5,1.7 1.2,3.3 2.1,4.7 0.4,0.3 0.7,0.6 1,1.1" /></defs>
			<use
   xlink:href="#SVGID_4_"
   style="overflow:visible;fill:#6a6ea1"
   id="use15" />
			<clipPath
   id="SVGID_9_">
				<use
   xlink:href="#SVGID_4_"
   style="overflow:visible"
   id="use16" />
			</clipPath>
			<g
   class="st2"
   clip-path="url(#SVGID_9_)"
   id="g21">
				<g
   id="g20">
					<g
   id="g19">
						<g
   id="g18">
							<defs
   id="defs16"><rect
     id="SVGID_3_"
     x="70"
     y="24.200001"
     transform="matrix(0.8469,-0.5318,0.5318,0.8469,-14.532,55.051)"
     width="36.700001"
     height="57.200001" /></defs>
							<use
   xlink:href="#SVGID_3_"
   style="overflow:visible;fill:#6a6ea1"
   id="use17" />
							<clipPath
   id="SVGID_10_">
								<use
   xlink:href="#SVGID_3_"
   style="overflow:visible"
   id="use18" />
							</clipPath>
						</g>
					</g>
				</g>
			</g>
		</g>
	</g>
	<g
   id="g31">
		<g
   id="g30">
			<defs
   id="defs23"><path
     id="SVGID_2_"
     d="m 131.7,57.8 c 0.4,-0.6 0.6,-1.1 0.9,-1.8 0.7,-1.4 1.1,-2.8 1.4,-4.3 1.5,-7.1 0.4,-16 -3.9,-25.2 -0.4,-0.7 -0.7,-1.5 -1,-2.2 -0.3,-0.7 -0.8,-1.5 -1.2,-2.2 -0.3,-0.5 -0.6,-1 -0.9,-1.4 -0.3,-0.5 -0.6,-1 -0.9,-1.5 -1.9,-3.1 -4.3,-6.1 -6.9,-9 0,0 8.9,17 3.1,29.3 -1.2,2.6 -3.2,5.1 -6,7.1 -1.1,0.8 -2.4,1.5 -3.8,2.2 -4.4,2.2 -9.4,3.9 -12.3,8.1 -0.6,0.9 -1,1.7 -1.1,2.6 -0.2,1 -0.1,2 0.3,2.8 0.1,0.3 0.3,0.7 0.5,1 2.6,4.3 6.9,5.8 11.5,5.8 0.5,0 0.9,0 1.5,0 0.5,0 0.9,0 1.4,-0.2 1.1,-0.2 2.7,-0.6 4,-1.1 1.5,-0.5 2.9,-1 3.8,-1.4 0.3,-0.1 0.7,-0.3 1,-0.4 0.9,-0.5 1.7,-0.9 2.6,-1.6 0.7,-0.5 1.4,-1 2.1,-1.5 1.3,-1.2 2.4,-2.5 3.4,-3.9 0.1,-0.4 0.2,-0.8 0.5,-1.2" /></defs>
			<use
   xlink:href="#SVGID_2_"
   style="overflow:visible;fill:#cdcfdb"
   id="use23" />
			<clipPath
   id="SVGID_11_">
				<use
   xlink:href="#SVGID_2_"
   style="overflow:visible"
   id="use24" />
			</clipPath>
			<g
   class="st3"
   clip-path="url(#SVGID_11_)"
   id="g29">
				<g
   id="g28">
					<g
   id="g27">
						<g
   id="g26">
							<defs
   id="defs24"><rect
     id="SVGID_1_"
     x="90.199997"
     y="25.700001"
     transform="matrix(0.5459,-0.8379,0.8379,0.5459,17.0666,119.5824)"
     width="57.200001"
     height="36.700001" /></defs>
							<use
   xlink:href="#SVGID_1_"
   style="overflow:visible;fill:#cdcfdb"
   id="use25" />
							<clipPath
   id="SVGID_12_">
								<use
   xlink:href="#SVGID_1_"
   style="overflow:visible"
   id="use26" />
							</clipPath>
						</g>
					</g>
				</g>
			</g>
		</g>
	</g>
</g>
</svg>
