<?xml version="1.0" encoding="utf-8"?>
<!-- Generator: Adobe Illustrator 23.0.3, SVG Export Plug-In . SVG Version: 6.00 Build 0)  -->
<svg version="1.1" id="Layer_1" xmlns="http://www.w3.org/2000/svg" xmlns:xlink="http://www.w3.org/1999/xlink" x="0px" y="0px"
	 viewBox="0 0 436.7 73.7" width="436.7" height="73.7" style="enable-background:new 0 0 436.7 73.7;" xml:space="preserve">
<style type="text/css">
	.st0{fill:#FFFFFF;}
	.st1{clip-path:url(#SVGID_6_);}
	.st2{clip-path:url(#SVGID_9_);}
	.st3{clip-path:url(#SVGID_11_);}
</style>
<path class="st0" d="M0,1.6h36c10.6,0,25,4.8,25,17.1C61,30,50.5,35.3,34.6,35.8C49.4,42.1,56.5,49.1,64.9,61
	c2.6,3.6,4.6,6.2,7.3,6.5v1.4H52.1v-1.4c2.7-0.5,3.2-1.6,3.2-2.9c0-6.6-17.3-25-36.2-29.2v-4.2h9.7c8.3,0,14.4-1.3,18.1-4.2
	c2.7-2,4.1-4.7,4.1-8.2c0-7.1-8-11.4-19.3-11.4H14.4v54.7c0,2.7,0.9,5.2,4.5,5.4v1.4H0.1v-1.4c3.1-0.6,4.5-2.4,4.5-4.9V8.3
	c0-3-1.2-4.7-4.6-5.3V1.6z"/>
<path class="st0" d="M190.8,1.6h17.5V3c-4.3,1-5.4,3.9-7.6,7.7l-33.6,60h-5l-34.6-59.2C125,7.3,123,3.6,119.6,3V1.6h19.2V3
	c-1.9,0-3.6,1.2-3.6,3.1c0,0.7,0.2,1.4,0.7,2.3L165.7,59l27.5-49.8c0.6-1,0.9-2.1,0.9-3c0-1.7-1-2.9-3.2-3.1L190.8,1.6L190.8,1.6z"
	/>
<path class="st0" d="M212.9,1.6h18.8V3c-3.1,0.5-4.5,2-4.5,4.3V63c0,2.5,1.7,4.1,4.5,4.6V69H213v-1.4c2.7-0.7,4.5-2.1,4.5-4.3V7.9
	c0-2.3-1.2-4.2-4.6-4.8V1.6z"/>
<path class="st0" d="M236.5,53.8c5.9,7.1,17,11.4,27,11.4c12,0,20.2-5.3,20.2-12.7c0-17.2-46.8-15.6-46.8-36.5
	c0-8.6,8.7-15.9,24.8-15.9c10.8,0,16.3,2.2,19.7,3.7l3-2.8h1.9l3.6,14.4h-2.4c-6.3-6.5-15.2-9.8-24.6-9.8c-11.1,0-17.2,4.2-17.2,9.7
	c0,15.1,46.9,13.6,46.9,36.8c0,5.2-4.2,18.7-27.6,18.7c-7.9,0-13.6-1.3-19.3-3.8l-2.7,3h-2l-6.7-16L236.5,53.8z"/>
<path class="st0" d="M292,1.6h20.6V3c-2,0.3-3.1,1-3.1,2c0,0.6,0.4,1.2,1,1.8l25.6,26.7l23.2-25.4c0.9-0.9,1.6-2.2,1.6-3.2
	S360.2,3,357.7,3V1.6h18.6V3c-3.6,0.6-6.9,3.8-8.7,5.7l-28,31.2V63c0,2.5,2,4.1,4.6,4.5v1.4h-18.7v-1.4c2.8-0.7,4.3-2.6,4.3-4.2
	V39.2L299.7,7.8c-2.2-2.3-4.8-5-7.7-4.7V1.6z"/>
<path class="st0" d="M372.9,53.8c5.9,7.1,17,11.4,27,11.4c12,0,20.2-5.3,20.2-12.7c0-17.2-46.8-15.6-46.8-36.5
	c-0.1-8.7,8.6-16,24.7-16c10.8,0,16.3,2.2,19.7,3.7l3-2.8h1.9l3.6,14.4h-2.4c-6.3-6.5-15.2-9.8-24.6-9.8c-11.1,0-17.2,4.2-17.2,9.7
	c0,15.1,46.9,13.6,46.9,36.8c0,5.2-4.2,18.7-27.6,18.7c-7.9,0-13.6-1.3-19.3-3.8l-2.7,3h-2l-6.7-16L372.9,53.8z"/>
<path class="st0" d="M436.7,69c0,2.6-2,4.7-4.7,4.7c-2.6,0-4.7-2.1-4.7-4.7s2-4.7,4.7-4.7C434.6,64.3,436.7,66.3,436.7,69 M428,69
	c0,2.2,1.7,4,4,4s4-1.8,4-4s-1.7-4-4-4C429.7,64.9,428,66.7,428,69 M430.9,71.7h-0.7v-5.4h2.1c1.2,0,1.8,0.5,1.8,1.5
	s-0.6,1.4-1.4,1.5l1.6,2.4h-0.8l-1.5-2.4h-1.1V71.7z M431.8,68.7c0.8,0,1.6,0,1.6-0.9c0-0.8-0.6-0.9-1.3-0.9h-1.2v1.9L431.8,68.7
	L431.8,68.7z"/>
<g>
	<g>
		<g>
			<defs>
				<path id="SVGID_5_" d="M101,2.1c-0.7,0-1.3,0.1-2,0.2c-1.5,0.2-2.9,0.6-4.4,1.2c-6.8,2.6-13.6,8.4-19,17
					c-0.4,0.7-0.9,1.4-1.3,2.1s-0.8,1.5-1.2,2.2c-0.3,0.5-0.5,1-0.7,1.5c-0.3,0.5-0.5,1.1-0.8,1.6c-1.5,3.3-2.8,6.9-3.8,10.7
					c0,0,9.4-16.8,22.9-18.6c2.9-0.4,6-0.1,9.2,1.2c1.3,0.5,2.6,1.2,3.9,2c4.3,2.5,8.4,5.8,13.5,5.9c1.1,0,2-0.1,2.8-0.5
					c0.9-0.4,1.7-1,2.2-1.8c0.2-0.3,0.4-0.6,0.6-1c2.2-4.5,1.1-9-1.4-12.8c-0.3-0.4-0.5-0.8-0.8-1.3c-0.3-0.4-0.5-0.8-0.9-1.1
					c-0.8-0.8-2-1.9-3.1-2.8c-1.2-1-2.4-1.9-3.2-2.4c-0.3-0.2-0.6-0.4-0.9-0.6c-0.9-0.5-1.7-0.9-2.7-1.3c-0.8-0.3-1.6-0.6-2.4-0.9
					c-1.7-0.5-3.4-0.7-5.1-0.7C101.9,2,101.5,2.1,101,2.1"/>
			</defs>
			<use xlink:href="#SVGID_5_"  style="overflow:visible;fill:#28378F;"/>
			<clipPath id="SVGID_6_">
				<use xlink:href="#SVGID_5_"  style="overflow:visible;"/>
			</clipPath>
			<g class="st1">
				<g>
					<g>
						<g>
							<defs>
								<rect id="SVGID_7_" x="67.9" y="2" width="57.2" height="36.7"/>
							</defs>
							<use xlink:href="#SVGID_7_"  style="overflow:visible;fill:#28378F;"/>
							<clipPath id="SVGID_8_">
								<use xlink:href="#SVGID_7_"  style="overflow:visible;"/>
							</clipPath>
						</g>
					</g>
				</g>
			</g>
		</g>
	</g>
	<g>
		<g>
			<defs>
				<path id="SVGID_4_" d="M70.5,58.7c0.4,0.6,0.8,1,1.2,1.6c1,1.2,2.1,2.1,3.4,3.1c5.8,4.4,14.3,7.1,24.5,7.1c0.8,0,1.7,0,2.5,0
					c0.8,0,1.7-0.1,2.5-0.2c0.6,0,1.1-0.1,1.6-0.2c0.6,0,1.2-0.2,1.8-0.2c3.6-0.5,7.3-1.3,11.1-2.5c0,0-19.2,1-27.9-9.5
					c-1.9-2.2-3.3-5-3.9-8.4c-0.3-1.4-0.4-2.8-0.4-4.4c-0.2-5,0.4-10.2-2.2-14.6c-0.6-0.9-1.1-1.6-1.9-2.1c-0.8-0.5-1.8-0.9-2.7-0.9
					c-0.4,0-0.7,0-1.2,0c-5,0.5-8.2,3.9-10.1,8c-0.2,0.5-0.4,0.8-0.7,1.4c-0.2,0.5-0.4,0.8-0.5,1.3c-0.3,1.1-0.5,2.7-0.7,4.1
					c-0.2,1.5-0.3,3-0.3,4c0,0.4,0,0.7,0,1.1c0.1,1,0.1,1.9,0.3,3c0.2,0.8,0.3,1.7,0.5,2.5c0.5,1.7,1.2,3.3,2.1,4.7
					C69.9,57.9,70.2,58.2,70.5,58.7"/>
			</defs>
			<use xlink:href="#SVGID_4_"  style="overflow:visible;fill:#6A6EA1;"/>
			<clipPath id="SVGID_9_">
				<use xlink:href="#SVGID_4_"  style="overflow:visible;"/>
			</clipPath>
			<g class="st2">
				<g>
					<g>
						<g>
							<defs>
								
									<rect id="SVGID_3_" x="70" y="24.2" transform="matrix(0.8469 -0.5318 0.5318 0.8469 -14.532 55.051)" width="36.7" height="57.2"/>
							</defs>
							<use xlink:href="#SVGID_3_"  style="overflow:visible;fill:#6A6EA1;"/>
							<clipPath id="SVGID_10_">
								<use xlink:href="#SVGID_3_"  style="overflow:visible;"/>
							</clipPath>
						</g>
					</g>
				</g>
			</g>
		</g>
	</g>
	<g>
		<g>
			<defs>
				<path id="SVGID_2_" d="M131.7,57.8c0.4-0.6,0.6-1.1,0.9-1.8c0.7-1.4,1.1-2.8,1.4-4.3c1.5-7.1,0.4-16-3.9-25.2
					c-0.4-0.7-0.7-1.5-1-2.2s-0.8-1.5-1.2-2.2c-0.3-0.5-0.6-1-0.9-1.4c-0.3-0.5-0.6-1-0.9-1.5c-1.9-3.1-4.3-6.1-6.9-9
					c0,0,8.9,17,3.1,29.3c-1.2,2.6-3.2,5.1-6,7.1c-1.1,0.8-2.4,1.5-3.8,2.2c-4.4,2.2-9.4,3.9-12.3,8.1c-0.6,0.9-1,1.7-1.1,2.6
					c-0.2,1-0.1,2,0.3,2.8c0.1,0.3,0.3,0.7,0.5,1c2.6,4.3,6.9,5.8,11.5,5.8c0.5,0,0.9,0,1.5,0c0.5,0,0.9,0,1.4-0.2
					c1.1-0.2,2.7-0.6,4-1.1c1.5-0.5,2.9-1,3.8-1.4c0.3-0.1,0.7-0.3,1-0.4c0.9-0.5,1.7-0.9,2.6-1.6c0.7-0.5,1.4-1,2.1-1.5
					c1.3-1.2,2.4-2.5,3.4-3.9C131.3,58.6,131.4,58.2,131.7,57.8"/>
			</defs>
			<use xlink:href="#SVGID_2_"  style="overflow:visible;fill:#CDCFDB;"/>
			<clipPath id="SVGID_11_">
				<use xlink:href="#SVGID_2_"  style="overflow:visible;"/>
			</clipPath>
			<g class="st3">
				<g>
					<g>
						<g>
							<defs>
								
									<rect id="SVGID_1_" x="90.2" y="25.7" transform="matrix(0.5459 -0.8379 0.8379 0.5459 17.0666 119.5824)" width="57.2" height="36.7"/>
							</defs>
							<use xlink:href="#SVGID_1_"  style="overflow:visible;fill:#CDCFDB;"/>
							<clipPath id="SVGID_12_">
								<use xlink:href="#SVGID_1_"  style="overflow:visible;"/>
							</clipPath>
						</g>
					</g>
				</g>
			</g>
		</g>
	</g>
</g>
</svg>
